Coordinates
version=1
nRows=6
nColumns=63
inDegrees=yes

Units are S.I. units (second, meters, Newtons, ...)
If the header above contains a line with 'inDegrees', this indicates whether rotational values are in degrees (yes) or radians (no).

endheader
time	pelvis_tilt	pelvis_list	pelvis_rotation	pelvis_tx	pelvis_ty	pelvis_tz	hip_flexion_r	hip_adduction_r	hip_rotation_r	knee_angle_r	knee_angle_r_beta	ankle_angle_r	subtalar_angle_r	mtp_angle_r	hip_flexion_l	hip_adduction_l	hip_rotation_l	knee_angle_l	knee_angle_l_beta	ankle_angle_l	subtalar_angle_l	mtp_angle_l	L5_S1_Flex_Ext	L5_S1_Lat_Bending	L5_S1_axial_rotation	L4_L5_Flex_Ext	L4_L5_Lat_Bending	L4_L5_axial_rotation	L3_L4_Flex_Ext	L3_L4_Lat_Bending	L3_L4_axial_rotation	L2_L3_Flex_Ext	L2_L3_Lat_Bending	L2_L3_axial_rotation	L1_L2_Flex_Ext	L1_L2_Lat_Bending	L1_L2_axial_rotation	L1_T12_Flex_Ext	L1_T12_Lat_Bending	L1_T12_axial_rotation	Abs_r3	Abs_r2	Abs_r1	Abs_t1	Abs_t2	neck_flexion	neck_bending	neck_rotation	arm_flex_r	arm_add_r	arm_rot_r	elbow_flex_r	pro_sup_r	wrist_flex_r	wrist_dev_r	arm_flex_l	arm_add_l	arm_rot_l	elbow_flex_l	pro_sup_l	wrist_flex_l	wrist_dev_l
2.785714	-2.822784	-0.360051	98.278843	0.104077	1.020275	0.495597	-3.995512	-0.639143	0.053227	4.708414	0.082177	22.777238	-3.185084	0.000000	-4.692275	1.387170	5.753366	1.253431	0.021876	24.274555	-0.031346	0.000000	0.008608	-0.649070	-0.480878	0.015986	-0.863264	-0.510933	0.014142	-1.578150	-0.510933	0.009838	-1.578150	-0.420769	0.007993	-1.323584	-0.390714	0.004919	-1.005410	-0.360659	0.061486	-7.342413	-2.674501	0.000000	0.000000	12.312909	18.297015	1.281818	32.368108	-45.584325	22.070097	138.417626	69.347876	-2.202736	4.594613	2.571754	-33.990133	31.115494	119.031220	65.813278	-14.892819	2.706349
2.809524	-2.736378	-0.386439	98.113664	0.104427	1.020521	0.495443	-4.047419	-0.522237	0.812941	4.485225	0.078282	22.411862	-4.005933	0.000000	-4.683411	1.304754	5.047270	1.287115	0.022464	24.213852	0.499923	0.000000	0.007417	-0.628870	-0.605087	0.013774	-0.836397	-0.642905	0.012186	-1.529035	-0.642905	0.008477	-1.529035	-0.529451	0.006888	-1.282392	-0.491633	0.004238	-0.974120	-0.453815	0.052980	-7.113906	-3.365314	0.000000	0.000000	12.392518	18.231955	1.352081	35.564879	-44.388262	22.876396	138.971450	72.758101	-1.977859	5.333009	0.161183	-33.966409	29.671765	119.321064	66.199075	-14.447935	3.870713
2.833333	-2.643763	-0.398841	97.948322	0.104674	1.020740	0.495223	-4.089002	-0.403620	1.561833	4.319353	0.075387	22.090428	-4.832123	0.000000	-4.696282	1.219469	4.400808	1.309716	0.022859	24.163751	0.962766	0.000000	0.004379	-0.605273	-0.732907	0.008133	-0.805013	-0.778713	0.007195	-1.471660	-0.778713	0.005005	-1.471660	-0.641293	0.004067	-1.234272	-0.595487	0.002502	-0.937567	-0.549680	0.031281	-6.846965	-4.076208	0.000000	0.000000	12.431673	18.091199	1.367841	38.877287	-43.167865	23.485957	139.579516	75.968872	-1.425167	5.993842	-2.360146	-33.694079	28.015028	119.627264	66.835384	-13.692264	5.393843
2.857143	-2.555582	-0.409986	97.782893	0.104832	1.020908	0.494974	-4.109876	-0.297433	2.281355	4.200787	0.073318	21.826019	-5.627119	0.000000	-4.713106	1.143798	3.833791	1.321150	0.023058	24.132094	1.341798	0.000000	0.001973	-0.580391	-0.862562	0.003665	-0.771920	-0.916472	0.003242	-1.411163	-0.916472	0.002255	-1.411163	-0.754741	0.001832	-1.183533	-0.700831	0.001128	-0.899026	-0.646921	0.014096	-6.565500	-4.797309	0.000000	0.000000	12.440161	17.883101	1.353158	42.192505	-41.897971	23.962170	140.155451	78.831960	-0.566061	6.532119	-4.928476	-33.181104	26.186303	119.918725	67.763118	-12.652448	7.153151
2.880952	-2.470729	-0.394006	97.626206	0.104916	1.021077	0.494688	-4.127404	-0.196074	2.963565	4.154439	0.072509	21.615190	-6.408786	0.000000	-4.759325	1.069358	3.322449	1.322596	0.023084	24.128086	1.690393	0.000000	-0.003010	-0.555871	-0.987957	-0.005591	-0.739308	-1.049704	-0.004946	-1.351544	-1.049704	-0.003441	-1.351544	-0.864463	-0.002796	-1.133532	-0.802715	-0.001720	-0.861044	-0.740968	-0.021503	-6.288122	-5.494721	0.000000	0.000000	12.416821	17.633548	1.231230	45.225512	-40.561271	24.222543	140.676934	81.205295	0.464851	6.923464	-7.436921	-32.407575	24.265423	120.133832	69.102098	-11.386825	8.918469
2.904762	-2.399461	-0.363401	97.509680	0.104893	1.021207	0.494319	-4.150568	-0.108381	3.565336	4.153286	0.072489	21.464858	-7.142720	0.000000	-4.826260	1.005074	2.952930	1.309015	0.022847	24.142670	1.942123	0.000000	-0.008025	-0.534508	-1.103453	-0.014903	-0.710895	-1.172418	-0.013184	-1.299602	-1.172418	-0.009172	-1.299602	-0.965521	-0.007452	-1.089968	-0.896555	-0.004585	-0.827953	-0.827589	-0.057321	-6.046460	-6.137073	0.000000	0.000000	12.426925	17.376604	0.945226	47.814163	-39.222441	24.363132	141.162865	82.773898	1.287091	7.286231	-9.765912	-31.407385	22.369531	120.255308	70.746291	-10.029353	10.622583
